# xmcd
#
# Track frame offsets:
#	150
#	10173
#	24496
#	36719
#	52733
#	65761
#	80757
#	92394
#	109326
#	119581
#	136073
#	151358
#	169300
#
# Disc length: 2522 seconds
#
# Revision: 0
# Processed by: cddbd v1.5.2PL0 Copyright (c) Steve Scherf et al.
# Submitted via: EasyCDDAExtractor 2010.6.0.0
#
DISCID=ac09d80d
DTITLE=Tabea Anderfuhren - Painting My Melodies
DYEAR=2010
DGENRE=Bluegrass
TTITLE0=Sweet Sugar
TTITLE1=Hey Little Miss
TTITLE2=What About Me
TTITLE3=Too Many Choices
TTITLE4=They Ain't Worth My Tears
TTITLE5=Goodbye
TTITLE6=You Just Feel Good
TTITLE7=On Thistledown Wind
TTITLE8=I Need Something Else
TTITLE9=Is It You
TTITLE10=Painting My Melodies
TTITLE11=Fasch win es Gebät
TTITLE12=Überaschigs Lied
EXTD=
EXTT0=
EXTT1=
EXTT2=
EXTT3=
EXTT4=
EXTT5=
EXTT6=
EXTT7=
EXTT8=
EXTT9=
EXTT10=
EXTT11=
EXTT12=
PLAYORDER=
